<svg width="45" height="39" viewBox="0 0 45 39" fill="none" xmlns="http://www.w3.org/2000/svg">
<path opacity="0.9" d="M4.70588 39C3.41176 39 2.30392 38.5757 1.38235 37.7271C0.460784 36.8785 0 35.8583 0 34.6667V4.33333C0 3.14167 0.460784 2.12153 1.38235 1.27292C2.30392 0.424306 3.41176 0 4.70588 0H37.6471C37.9608 0 38.2549 0.0270833 38.5294 0.08125C38.8039 0.135417 39.0784 0.216667 39.3529 0.325L35 4.33333H4.70588V34.6667H37.6471V20.2583L42.3529 15.925V34.6667C42.3529 35.8583 41.8922 36.8785 40.9706 37.7271C40.049 38.5757 38.9412 39 37.6471 39H4.70588ZM20.0588 30.3333L6.76471 18.0917L10.0588 15.0583L20.0588 24.2667L41.6471 4.3875L45 7.36667L20.0588 30.3333Z" fill="black"/>
</svg>
