<svg width="154" height="150" viewBox="0 0 154 150" fill="none" xmlns="http://www.w3.org/2000/svg">
<path d="M17.1111 150C12.4056 150 8.37731 148.368 5.02639 145.104C1.67546 141.84 0 137.917 0 133.333V100H17.1111V133.333H51.3333V150H17.1111ZM136.889 150H102.667V133.333H136.889V100H154V133.333C154 137.917 152.325 141.84 148.974 145.104C145.623 148.368 141.594 150 136.889 150ZM0 16.6667C0 12.0833 1.67546 8.15972 5.02639 4.89583C8.37731 1.63194 12.4056 0 17.1111 0H51.3333V16.6667H17.1111V50H0V16.6667ZM154 16.6667V50H136.889V16.6667H102.667V0H136.889C141.594 0 145.623 1.63194 148.974 4.89583C152.325 8.15972 154 12.0833 154 16.6667ZM77 125C79.9944 125 82.5255 123.993 84.5931 121.979C86.6606 119.965 87.6944 117.5 87.6944 114.583C87.6944 111.667 86.6606 109.201 84.5931 107.188C82.5255 105.174 79.9944 104.167 77 104.167C74.0056 104.167 71.4745 105.174 69.4069 107.188C67.3394 109.201 66.3056 111.667 66.3056 114.583C66.3056 117.5 67.3394 119.965 69.4069 121.979C71.4745 123.993 74.0056 125 77 125ZM69.3 93.125H84.9139C84.9139 88.4028 85.4843 84.7917 86.625 82.2917C87.7657 79.7917 90.2611 76.6667 94.1111 72.9167C99.1019 68.0556 102.417 64.1319 104.057 61.1458C105.697 58.1597 106.517 54.5833 106.517 50.4167C106.517 42.9167 103.736 36.8056 98.175 32.0833C92.6139 27.3611 85.5556 25 77 25C69.8704 25 63.7389 26.8056 58.6056 30.4167C53.4722 34.0278 49.7648 39.1667 47.4833 45.8333L61.6 51.4583C62.5982 47.8472 64.4875 44.8958 67.2681 42.6042C70.0486 40.3125 73.2926 39.1667 77 39.1667C81.1352 39.1667 84.4505 40.2431 86.9458 42.3958C89.4412 44.5486 90.6889 47.4306 90.6889 51.0417C90.6889 53.8194 90.0116 56.4236 88.6569 58.8542C87.3023 61.2847 84.9852 63.8194 81.7056 66.4583C77 70.4861 73.756 74.375 71.9736 78.125C70.1912 81.875 69.3 86.875 69.3 93.125Z" fill="black"/>
</svg>
