<svg width="216" height="183" viewBox="0 0 216 183" fill="none" xmlns="http://www.w3.org/2000/svg">
<path d="M45.6 183C39.6 183 34.5 180.998 30.3 176.995C26.1 172.992 24 168.131 24 162.412C24 158.409 25.2 154.645 27.6 151.118C30 147.591 33.2 145.066 37.2 143.541L84 125.812V100.078C73.2 112.087 60.65 121.285 46.35 127.671C32.05 134.057 16.6 137.25 0 137.25V114.375C13.6 114.375 25.95 111.706 37.05 106.369C48.15 101.031 58.2 93.4062 67.2 83.4937L83.4 65.1937C85.8 62.525 88.6 60.5234 91.8 59.1891C95 57.8547 98.4 57.1875 102 57.1875H114C117.6 57.1875 121 57.8547 124.2 59.1891C127.4 60.5234 130.2 62.525 132.6 65.1937L148.8 83.4937C157.8 93.4062 167.85 101.031 178.95 106.369C190.05 111.706 202.4 114.375 216 114.375V137.25C199.4 137.25 183.95 134.057 169.65 127.671C155.35 121.285 142.8 112.087 132 100.078V125.812L178.8 143.541C182.8 145.066 186 147.591 188.4 151.118C190.8 154.645 192 158.409 192 162.412C192 168.131 189.9 172.992 185.7 176.995C181.5 180.998 176.4 183 170.4 183H84V177.281C84 172.325 85.7 168.227 89.1 164.986C92.5 161.745 96.8 160.125 102 160.125H138C139.8 160.125 141.25 159.601 142.35 158.552C143.45 157.504 144 156.122 144 154.406C144 152.691 143.45 151.309 142.35 150.26C141.25 149.212 139.8 148.687 138 148.687H102C93.6 148.687 86.5 151.452 80.7 156.98C74.9 162.508 72 169.275 72 177.281V183H45.6ZM108 45.75C101.4 45.75 95.75 43.5102 91.05 39.0305C86.35 34.5508 84 29.1656 84 22.875C84 16.5844 86.35 11.1992 91.05 6.71953C95.75 2.23984 101.4 0 108 0C114.6 0 120.25 2.23984 124.95 6.71953C129.65 11.1992 132 16.5844 132 22.875C132 29.1656 129.65 34.5508 124.95 39.0305C120.25 43.5102 114.6 45.75 108 45.75Z" fill="black"/>
</svg>
