<svg width="748" height="669" viewBox="0 0 748 669" fill="none" xmlns="http://www.w3.org/2000/svg">
<path d="M720.342 299.562C732.57 274.181 738.894 246.361 738.842 218.188C738.842 114.438 654.779 30.375 551.029 30.375C526.717 30.375 503.467 35.0625 482.092 43.5C454.779 19.6875 418.967 5 380.092 5C332.592 5 290.092 26.25 261.967 59.375C240.092 47.5 215.092 40.625 188.842 40.625C105.092 41.25 36.9668 108.75 36.9668 192.5C36.9668 223.75 46.3418 253.125 63.2168 277.5C31.9668 302.5 10.0918 339.375 5.71675 382.5C-2.40825 466.25 59.4668 541.875 144.467 550C164.467 551.875 183.217 550 201.342 545C208.217 611.875 264.467 663.75 333.217 663.75C376.967 663.75 415.717 642.5 439.467 610C461.967 627.5 490.092 638.75 521.342 638.75C590.092 638.75 646.967 585.625 651.967 518.75C705.092 494.375 742.592 440.625 742.592 378.125C742.592 349.438 734.279 322.375 720.342 299.562Z" fill="white" stroke="black" stroke-width="10" stroke-miterlimit="10"/>
</svg>
